<svg width="20" height="20" viewBox="0 0 20 20" fill="none" xmlns="http://www.w3.org/2000/svg">
<path fill-rule="evenodd" clip-rule="evenodd" d="M19.5499 1.27952C19.8311 1.56081 19.9891 1.94228 19.9891 2.34002C19.9891 2.73777 19.8311 3.11923 19.5499 3.40052L8.30693 14.6435C8.15835 14.7921 7.98196 14.91 7.78781 14.9905C7.59367 15.0709 7.38558 15.1123 7.17543 15.1123C6.96529 15.1123 6.7572 15.0709 6.56305 14.9905C6.36891 14.91 6.19251 14.7921 6.04393 14.6435L0.457932 9.05852C0.314667 8.92015 0.200394 8.75464 0.12178 8.57163C0.0431668 8.38863 0.00178736 8.19179 5.66349e-05 7.99263C-0.00167409 7.79346 0.0362786 7.59594 0.1117 7.41159C0.187121 7.22725 0.298501 7.05977 0.43934 6.91893C0.580179 6.77809 0.747657 6.66671 0.932001 6.59129C1.11635 6.51587 1.31387 6.47792 1.51303 6.47965C1.7122 6.48138 1.90903 6.52276 2.09204 6.60137C2.27505 6.67999 2.44056 6.79426 2.57893 6.93752L7.17493 11.5335L17.4279 1.27952C17.5672 1.14013 17.7326 1.02956 17.9147 0.954116C18.0967 0.878674 18.2919 0.839844 18.4889 0.839844C18.686 0.839844 18.8811 0.878674 19.0632 0.954116C19.2452 1.02956 19.4106 1.14013 19.5499 1.27952Z" fill="#FFB91E"/>
</svg>
