<svg width="28" height="28" viewBox="0 0 28 28" fill="none" xmlns="http://www.w3.org/2000/svg">
<circle cx="13.8291" cy="13.8291" r="13.4563" stroke="#FFB91E" stroke-width="0.745672"/>
<circle cx="13.7951" cy="13.795" r="11.7816" stroke="#FFB91E" stroke-width="0.745672"/>
<path d="M13.763 20.6272C12.5047 20.6272 11.3793 20.3213 10.3865 19.7095C9.39376 19.0977 8.62035 18.2435 8.06626 17.1468C7.51217 16.0386 7.23513 14.7746 7.23513 13.3548C7.23513 11.9349 7.51217 10.6767 8.06626 9.58004C8.62035 8.47186 9.39376 7.61187 10.3865 7.00006C11.3793 6.38826 12.5047 6.08235 13.763 6.08235C15.0212 6.08235 16.1467 6.38826 17.1395 7.00006C18.1322 7.61187 18.9056 8.47186 19.4597 9.58004C20.0138 10.6767 20.2908 11.9349 20.2908 13.3548C20.2908 14.7746 20.0138 16.0386 19.4597 17.1468C18.9056 18.2435 18.1322 19.0977 17.1395 19.7095C16.1467 20.3213 15.0212 20.6272 13.763 20.6272ZM13.763 20.2289C14.5941 20.2289 15.3387 20.0096 15.9967 19.571C16.6662 19.1323 17.1914 18.4974 17.5723 17.6663C17.9533 16.8236 18.1438 15.8309 18.1438 14.688V12.0215C18.1438 10.8787 17.9533 9.89171 17.5723 9.06058C17.1914 8.2179 16.6662 7.57724 15.9967 7.13858C15.3387 6.69993 14.5941 6.4806 13.763 6.4806C12.9203 6.4806 12.17 6.69993 11.512 7.13858C10.854 7.57724 10.3346 8.2179 9.95363 9.06058C9.57269 9.89171 9.38222 10.8787 9.38222 12.0215V14.688C9.38222 15.8309 9.57269 16.8236 9.95363 17.6663C10.3346 18.4974 10.854 19.1323 11.512 19.571C12.17 20.0096 12.9203 20.2289 13.763 20.2289Z" fill="#3F5FB1"/>
</svg>
