<svg width="14" height="14" viewBox="0 0 14 14" fill="none" xmlns="http://www.w3.org/2000/svg">
<circle cx="7" cy="7" r="6.81128" stroke="#FFB91E" stroke-width="0.377443"/>
<circle cx="6.98338" cy="6.98274" r="5.9636" stroke="#FFB91E" stroke-width="0.377443"/>
<path d="M6.99873 10.5101C6.39308 10.5101 5.85133 10.3628 5.37347 10.0683C4.89562 9.77385 4.52334 9.36267 4.25663 8.83481C3.98992 8.30139 3.85656 7.69296 3.85656 7.00952C3.85656 6.32608 3.98992 5.72042 4.25663 5.19256C4.52334 4.65914 4.89562 4.24519 5.37347 3.9507C5.85133 3.65621 6.39308 3.50896 6.99873 3.50896C7.60438 3.50896 8.14614 3.65621 8.62399 3.9507C9.10184 4.24519 9.47413 4.65914 9.74083 5.19256C10.0075 5.72042 10.1409 6.32608 10.1409 7.00952C10.1409 7.69296 10.0075 8.30139 9.74083 8.83481C9.47413 9.36267 9.10184 9.77385 8.62399 10.0683C8.14614 10.3628 7.60438 10.5101 6.99873 10.5101ZM6.99873 10.3184C7.39879 10.3184 7.75718 10.2128 8.0739 10.0017C8.39618 9.79052 8.64899 9.48491 8.83236 9.08485C9.01572 8.67923 9.1074 8.20138 9.1074 7.65129V6.36775C9.1074 5.81766 9.01572 5.34259 8.83236 4.94252C8.64899 4.5369 8.39618 4.22852 8.0739 4.01737C7.75718 3.80623 7.39879 3.70066 6.99873 3.70066C6.59311 3.70066 6.23194 3.80623 5.91522 4.01737C5.59851 4.22852 5.34847 4.5369 5.1651 4.94252C4.98174 5.34259 4.89006 5.81766 4.89006 6.36775V7.65129C4.89006 8.20138 4.98174 8.67923 5.1651 9.08485C5.34847 9.48491 5.59851 9.79052 5.91522 10.0017C6.23194 10.2128 6.59311 10.3184 6.99873 10.3184Z" fill="#3F5FB1"/>
</svg>
