<svg width="42" height="42" viewBox="0 0 42 42" fill="none" xmlns="http://www.w3.org/2000/svg">
<circle cx="21" cy="21" r="21" fill="white"/>
<path d="M22.2413 12.7461C22.1512 12.6573 22.0443 12.5874 21.9268 12.5405C21.8094 12.4935 21.6837 12.4705 21.5572 12.4727C21.4307 12.475 21.306 12.5025 21.1903 12.5535C21.0745 12.6046 20.9702 12.6783 20.8833 12.7703C20.7964 12.8622 20.7288 12.9706 20.6843 13.089C20.6398 13.2074 20.6195 13.3335 20.6244 13.4599C20.6293 13.5863 20.6594 13.7105 20.7129 13.8251C20.7664 13.9397 20.8423 14.0425 20.936 14.1274L27.5751 20.4066H11.4507C11.1987 20.4066 10.9569 20.5067 10.7787 20.685C10.6004 20.8632 10.5003 21.105 10.5003 21.357C10.5003 21.6091 10.6004 21.8509 10.7787 22.0291C10.9569 22.2073 11.1987 22.3075 11.4507 22.3075H27.5776L20.936 28.5892C20.8423 28.6741 20.7664 28.7769 20.7129 28.8915C20.6594 29.0061 20.6293 29.1303 20.6244 29.2567C20.6195 29.3831 20.6398 29.5092 20.6843 29.6276C20.7288 29.7461 20.7964 29.8544 20.8833 29.9464C20.9702 30.0383 21.0745 30.112 21.1903 30.1631C21.306 30.2142 21.4307 30.2416 21.5572 30.2439C21.6837 30.2461 21.8094 30.2231 21.9268 30.1762C22.0443 30.1292 22.1512 30.0593 22.2413 29.9705L30.3744 22.2783C30.5764 22.0874 30.71 21.8354 30.7546 21.5611C30.7844 21.424 30.7836 21.2821 30.7521 21.1454C30.706 20.8751 30.5735 20.6269 30.3744 20.4383L22.2413 12.7461Z" fill="#3F5FB1"/>
</svg>
