<svg width="268" height="42" viewBox="0 0 268 42" fill="none" xmlns="http://www.w3.org/2000/svg">
<circle cx="20.0279" cy="21.2068" r="19.4879" stroke="#FFB91E" stroke-width="1.07991"/>
<circle cx="19.9795" cy="21.1575" r="17.0626" stroke="#FFB91E" stroke-width="1.07991"/>
<path d="M20.0694 31.432C18.2472 31.432 16.6172 30.989 15.1795 30.1029C13.7417 29.2169 12.6216 27.9798 11.8192 26.3916C11.0167 24.7867 10.6155 22.956 10.6155 20.8998C10.6155 18.8435 11.0167 17.0212 11.8192 15.433C12.6216 13.8281 13.7417 12.5826 15.1795 11.6966C16.6172 10.8105 18.2472 10.3675 20.0694 10.3675C21.8917 10.3675 23.5217 10.8105 24.9594 11.6966C26.3971 12.5826 27.5172 13.8281 28.3197 15.433C29.1221 17.0212 29.5234 18.8435 29.5234 20.8998C29.5234 22.956 29.1221 24.7867 28.3197 26.3916C27.5172 27.9798 26.3971 29.2169 24.9594 30.1029C23.5217 30.989 21.8917 31.432 20.0694 31.432ZM20.0694 30.8552C21.2731 30.8552 22.3514 30.5376 23.3043 29.9023C24.274 29.267 25.0346 28.3475 25.5863 27.1439C26.138 25.9235 26.4138 24.4857 26.4138 22.8307V18.9688C26.4138 17.3138 26.138 15.8844 25.5863 14.6807C25.0346 13.4603 24.274 12.5325 23.3043 11.8972C22.3514 11.2619 21.2731 10.9443 20.0694 10.9443C18.849 10.9443 17.7624 11.2619 16.8094 11.8972C15.8565 12.5325 15.1042 13.4603 14.5525 14.6807C14.0009 15.8844 13.725 17.3138 13.725 18.9688V22.8307C13.725 24.4857 14.0009 25.9235 14.5525 27.1439C15.1042 28.3475 15.8565 29.267 16.8094 29.9023C17.7624 30.5376 18.849 30.8552 20.0694 30.8552Z" fill="#3F5FB1"/>
<path d="M64.1126 29.703C62.7832 29.703 61.5738 29.3984 60.4844 28.7891C59.395 28.1613 58.5272 27.2843 57.881 26.1579C57.2532 25.0132 56.9393 23.7115 56.9393 22.2528C56.9393 20.7941 57.2532 19.5017 57.881 18.3754C58.5272 17.249 59.395 16.3812 60.4844 15.7719C61.5738 15.1441 62.7832 14.8303 64.1126 14.8303C65.442 14.8303 66.6514 15.1441 67.7408 15.7719C68.8301 16.3812 69.6887 17.249 70.3165 18.3754C70.9627 19.5017 71.2859 20.7941 71.2859 22.2528C71.2859 23.7115 70.9627 25.0132 70.3165 26.1579C69.6887 27.2843 68.8301 28.1613 67.7408 28.7891C66.6514 29.3984 65.442 29.703 64.1126 29.703ZM64.1126 29.0937C65.4789 29.0937 66.5037 28.5952 67.1868 27.5981C67.8885 26.6011 68.2393 25.2809 68.2393 23.6376V20.868C68.2393 19.2247 67.8885 17.9137 67.1868 16.9352C66.5037 15.9381 65.4789 15.4396 64.1126 15.4396C62.7462 15.4396 61.7123 15.9381 61.0106 16.9352C60.3275 17.9137 59.9859 19.2247 59.9859 20.868V23.6376C59.9859 25.2809 60.3275 26.6011 61.0106 27.5981C61.7123 28.5952 62.7462 29.0937 64.1126 29.0937ZM73.045 36.7102L74.9837 36.4332V15.9381L73.045 15.6611V15.1072H77.7533V18.0153C78.2149 17.0182 78.8335 16.2428 79.609 15.6888C80.4029 15.1164 81.3446 14.8303 82.434 14.8303C83.7449 14.8303 84.8989 15.1441 85.896 15.7719C86.893 16.3812 87.6685 17.249 88.2225 18.3754C88.7764 19.4832 89.0533 20.7849 89.0533 22.2805C89.0533 23.7761 88.7764 25.087 88.2225 26.2133C87.6685 27.3212 86.893 28.1798 85.896 28.7891C84.8989 29.3984 83.7449 29.703 82.434 29.703C81.3446 29.703 80.4029 29.4261 79.609 28.8722C78.8335 28.2998 78.2149 27.5243 77.7533 26.5457V36.4332L80.3568 36.7102V37.2641H73.045V36.7102ZM82.157 29.0106C84.7235 29.0106 86.0068 27.2289 86.0068 23.6653V20.8957C86.0068 17.3137 84.7235 15.5227 82.157 15.5227C81.3446 15.5227 80.606 15.7627 79.9413 16.2428C79.2766 16.7044 78.7504 17.3321 78.3626 18.1261C77.9749 18.92 77.7718 19.7786 77.7533 20.7018V23.6653C77.7533 24.607 77.938 25.4932 78.3073 26.3241C78.695 27.1365 79.2212 27.792 79.8859 28.2905C80.5691 28.7706 81.3261 29.0106 82.157 29.0106ZM98.7359 29.703C97.3696 29.703 96.1325 29.3984 95.0247 28.7891C93.9168 28.1613 93.0398 27.2843 92.3935 26.1579C91.7473 25.0316 91.4242 23.7299 91.4242 22.2528C91.4242 20.7757 91.7381 19.4832 92.3658 18.3754C93.0121 17.249 93.8706 16.3812 94.9416 15.7719C96.0309 15.1441 97.2403 14.8303 98.5698 14.8303C99.733 14.8303 100.776 15.0887 101.699 15.6057C102.623 16.1227 103.343 16.8428 103.86 17.766C104.377 18.6708 104.644 19.714 104.663 20.8957H94.4707V23.6376C94.4707 25.2624 94.8308 26.5826 95.5509 27.5981C96.2894 28.5952 97.3511 29.0937 98.7359 29.0937C100.01 29.0937 101.136 28.7337 102.115 28.0136C103.093 27.2935 103.694 26.3611 103.915 25.2163H104.552C104.294 26.5826 103.638 27.672 102.586 28.4844C101.533 29.2968 100.25 29.703 98.7359 29.703ZM101.616 20.2033C101.616 18.5969 101.367 17.406 100.869 16.6305C100.37 15.8365 99.5945 15.4396 98.5421 15.4396C97.305 15.4396 96.3448 15.8735 95.6617 16.7413C94.9785 17.6091 94.5907 18.7631 94.4984 20.2033H101.616ZM106.506 28.8722L108.445 28.5952V15.9104L106.506 15.6334V15.0795H111.214V18.0707C111.897 17.0736 112.701 16.2889 113.624 15.7165C114.547 15.1257 115.544 14.8303 116.615 14.8303C117.944 14.8303 118.988 15.1626 119.745 15.8273C120.52 16.492 120.908 17.4798 120.908 18.7908V28.5952L122.847 28.8722V29.4261H116.477V28.8722L118.138 28.5952V18.8462C118.138 17.8861 117.944 17.1475 117.557 16.6305C117.169 16.095 116.569 15.8273 115.756 15.8273C114.907 15.8273 114.085 16.1412 113.292 16.769C112.516 17.3783 111.824 18.1353 111.214 19.0401V28.5952L112.876 28.8722V29.4261H106.506V28.8722ZM131.765 22.3082V21.3942H137.831V22.3082H131.765ZM146.829 36.7102L148.768 36.4332V15.9381L146.829 15.6611V15.1072H151.537V18.0153C151.999 17.0182 152.618 16.2428 153.393 15.6888C154.187 15.1164 155.129 14.8303 156.218 14.8303C157.529 14.8303 158.683 15.1441 159.68 15.7719C160.677 16.3812 161.453 17.249 162.007 18.3754C162.56 19.4832 162.837 20.7849 162.837 22.2805C162.837 23.7761 162.56 25.087 162.007 26.2133C161.453 27.3212 160.677 28.1798 159.68 28.7891C158.683 29.3984 157.529 29.703 156.218 29.703C155.129 29.703 154.187 29.4261 153.393 28.8722C152.618 28.2998 151.999 27.5243 151.537 26.5457V36.4332L154.141 36.7102V37.2641H146.829V36.7102ZM155.941 29.0106C158.508 29.0106 159.791 27.2289 159.791 23.6653V20.8957C159.791 17.3137 158.508 15.5227 155.941 15.5227C155.129 15.5227 154.39 15.7627 153.725 16.2428C153.061 16.7044 152.534 17.3321 152.147 18.1261C151.759 18.92 151.556 19.7786 151.537 20.7018V23.6653C151.537 24.607 151.722 25.4932 152.091 26.3241C152.479 27.1365 153.005 27.792 153.67 28.2905C154.353 28.7706 155.11 29.0106 155.941 29.0106ZM172.52 29.703C171.154 29.703 169.917 29.3984 168.809 28.7891C167.701 28.1613 166.824 27.2843 166.178 26.1579C165.531 25.0316 165.208 23.7299 165.208 22.2528C165.208 20.7757 165.522 19.4832 166.15 18.3754C166.796 17.249 167.655 16.3812 168.726 15.7719C169.815 15.1441 171.024 14.8303 172.354 14.8303C173.517 14.8303 174.56 15.0887 175.483 15.6057C176.407 16.1227 177.127 16.8428 177.644 17.766C178.161 18.6708 178.429 19.714 178.447 20.8957H168.255V23.6376C168.255 25.2624 168.615 26.5826 169.335 27.5981C170.074 28.5952 171.135 29.0937 172.52 29.0937C173.794 29.0937 174.92 28.7337 175.899 28.0136C176.878 27.2935 177.478 26.3611 177.699 25.2163H178.336C178.078 26.5826 177.422 27.672 176.37 28.4844C175.317 29.2968 174.034 29.703 172.52 29.703ZM175.4 20.2033C175.4 18.5969 175.151 17.406 174.653 16.6305C174.154 15.8365 173.379 15.4396 172.326 15.4396C171.089 15.4396 170.129 15.8735 169.446 16.7413C168.763 17.6091 168.375 18.7631 168.283 20.2033H175.4ZM187.906 29.703C186.577 29.703 185.368 29.3984 184.278 28.7891C183.189 28.1613 182.321 27.2843 181.675 26.1579C181.047 25.0132 180.733 23.7115 180.733 22.2528C180.733 20.7941 181.047 19.5017 181.675 18.3754C182.321 17.249 183.189 16.3812 184.278 15.7719C185.368 15.1441 186.577 14.8303 187.906 14.8303C189.236 14.8303 190.445 15.1441 191.535 15.7719C192.624 16.3812 193.483 17.249 194.11 18.3754C194.757 19.5017 195.08 20.7941 195.08 22.2528C195.08 23.7115 194.757 25.0132 194.11 26.1579C193.483 27.2843 192.624 28.1613 191.535 28.7891C190.445 29.3984 189.236 29.703 187.906 29.703ZM187.906 29.0937C189.273 29.0937 190.298 28.5952 190.981 27.5981C191.682 26.6011 192.033 25.2809 192.033 23.6376V20.868C192.033 19.2247 191.682 17.9137 190.981 16.9352C190.298 15.9381 189.273 15.4396 187.906 15.4396C186.54 15.4396 185.506 15.9381 184.805 16.9352C184.121 17.9137 183.78 19.2247 183.78 20.868V23.6376C183.78 25.2809 184.121 26.6011 184.805 27.5981C185.506 28.5952 186.54 29.0937 187.906 29.0937ZM196.839 36.7102L198.778 36.4332V15.9381L196.839 15.6611V15.1072H201.547V18.0153C202.009 17.0182 202.627 16.2428 203.403 15.6888C204.197 15.1164 205.139 14.8303 206.228 14.8303C207.539 14.8303 208.693 15.1441 209.69 15.7719C210.687 16.3812 211.462 17.249 212.016 18.3754C212.57 19.4832 212.847 20.7849 212.847 22.2805C212.847 23.7761 212.57 25.087 212.016 26.2133C211.462 27.3212 210.687 28.1798 209.69 28.7891C208.693 29.3984 207.539 29.703 206.228 29.703C205.139 29.703 204.197 29.4261 203.403 28.8722C202.627 28.2998 202.009 27.5243 201.547 26.5457V36.4332L204.151 36.7102V37.2641H196.839V36.7102ZM205.951 29.0106C208.517 29.0106 209.801 27.2289 209.801 23.6653V20.8957C209.801 17.3137 208.517 15.5227 205.951 15.5227C205.139 15.5227 204.4 15.7627 203.735 16.2428C203.071 16.7044 202.544 17.3321 202.157 18.1261C201.769 18.92 201.566 19.7786 201.547 20.7018V23.6653C201.547 24.607 201.732 25.4932 202.101 26.3241C202.489 27.1365 203.015 27.792 203.68 28.2905C204.363 28.7706 205.12 29.0106 205.951 29.0106ZM214.581 29.4261V28.8722L216.658 28.5952V8.1001L214.581 7.82314V7.26922H219.428V28.5952L221.367 28.8722V29.4261H214.581ZM230.455 29.703C229.088 29.703 227.851 29.3984 226.743 28.7891C225.635 28.1613 224.758 27.2843 224.112 26.1579C223.466 25.0316 223.143 23.7299 223.143 22.2528C223.143 20.7757 223.457 19.4832 224.084 18.3754C224.731 17.249 225.589 16.3812 226.66 15.7719C227.75 15.1441 228.959 14.8303 230.288 14.8303C231.452 14.8303 232.495 15.0887 233.418 15.6057C234.341 16.1227 235.061 16.8428 235.578 17.766C236.095 18.6708 236.363 19.714 236.382 20.8957H226.189V23.6376C226.189 25.2624 226.549 26.5826 227.27 27.5981C228.008 28.5952 229.07 29.0937 230.455 29.0937C231.729 29.0937 232.855 28.7337 233.834 28.0136C234.812 27.2935 235.412 26.3611 235.634 25.2163H236.271C236.012 26.5826 235.357 27.672 234.304 28.4844C233.252 29.2968 231.969 29.703 230.455 29.703ZM233.335 20.2033C233.335 18.5969 233.086 17.406 232.587 16.6305C232.089 15.8365 231.313 15.4396 230.261 15.4396C229.024 15.4396 228.063 15.8735 227.38 16.7413C226.697 17.6091 226.309 18.7631 226.217 20.2033H233.335ZM240.523 29.703C240.062 29.703 239.665 29.5461 239.332 29.2322C239.019 28.8999 238.862 28.5029 238.862 28.0413C238.862 27.5797 239.019 27.2012 239.332 26.9057C239.665 26.5919 240.062 26.4349 240.523 26.4349C240.985 26.4349 241.373 26.5919 241.687 26.9057C242.001 27.2012 242.157 27.5797 242.157 28.0413C242.157 28.5029 242.001 28.8999 241.687 29.2322C241.373 29.5461 240.985 29.703 240.523 29.703ZM248.853 29.703C247.671 29.703 246.702 29.3984 245.945 28.7891C245.188 28.1613 244.809 27.2381 244.809 26.0195C244.809 24.2838 245.539 23.056 246.997 22.3359C248.456 21.5973 250.145 21.228 252.066 21.228H253.921V19.0954C253.921 18.1353 253.811 17.3968 253.589 16.8798C253.386 16.3443 253.063 15.975 252.62 15.7719C252.177 15.5504 251.576 15.4396 250.819 15.4396C249.952 15.4396 249.305 15.615 248.881 15.9658C248.456 16.2981 248.244 16.7505 248.244 17.3229C248.244 17.8584 248.502 18.2092 249.019 18.3754C249.019 18.837 248.844 19.2432 248.493 19.594C248.142 19.9448 247.727 20.1202 247.247 20.1202C246.73 20.1202 246.314 19.9817 246 19.7048C245.686 19.4093 245.529 18.9662 245.529 18.3754C245.529 17.3044 246.065 16.4459 247.136 15.7996C248.207 15.1534 249.545 14.8303 251.152 14.8303C254.845 14.8303 256.691 16.4366 256.691 19.6494V27.5704C256.691 27.9767 256.774 28.2905 256.94 28.5121C257.125 28.7152 257.383 28.8168 257.716 28.8168C258.03 28.8168 258.279 28.7152 258.464 28.5121C258.648 28.2905 258.741 27.9951 258.741 27.6258H259.322C259.322 28.2721 259.11 28.7798 258.685 29.1491C258.279 29.5184 257.707 29.703 256.968 29.703C256.119 29.703 255.399 29.463 254.808 28.9829C254.235 28.4844 253.94 27.7182 253.921 26.6842C253.478 27.6258 252.795 28.3644 251.872 28.8999C250.967 29.4353 249.961 29.703 248.853 29.703ZM250.376 28.4844C250.875 28.4844 251.383 28.3367 251.9 28.0413C252.435 27.7459 252.887 27.3212 253.257 26.7673C253.626 26.1949 253.848 25.5117 253.921 24.7178V21.8374H252.066C250.552 21.8374 249.416 22.1789 248.659 22.8621C247.921 23.5268 247.551 24.4685 247.551 25.6871C247.551 26.7026 247.791 27.4227 248.271 27.8474C248.751 28.2721 249.453 28.4844 250.376 28.4844ZM262.961 11.8668C262.444 11.8668 262.001 11.6914 261.631 11.3405C261.262 10.9713 261.078 10.5281 261.078 10.0111C261.078 9.49414 261.253 9.06024 261.604 8.70942C261.973 8.3586 262.425 8.18319 262.961 8.18319C263.459 8.18319 263.884 8.3586 264.235 8.70942C264.586 9.06024 264.761 9.49414 264.761 10.0111C264.761 10.5281 264.586 10.9713 264.235 11.3405C263.884 11.6914 263.459 11.8668 262.961 11.8668ZM260.025 29.4261V28.8722L261.964 28.5952V15.9381L260.025 15.6611V15.1072H264.733V28.5952L266.672 28.8722V29.4261H260.025Z" fill="#3F5FB1"/>
<path d="M47.832 1L47.832 41.0528" stroke="#3F5FB1" stroke-width="0.852187" stroke-linecap="round"/>
</svg>
